<?xml version="1.0" standalone="no"?>
<!DOCTYPE svg PUBLIC "-//W3C//DTD SVG 20010904//EN"
 "http://www.w3.org/TR/2001/REC-SVG-20010904/DTD/svg10.dtd">
<svg version="1.0" xmlns="http://www.w3.org/2000/svg"
 width="715.000000pt" height="715.000000pt" viewBox="0 0 715.000000 715.000000"
 preserveAspectRatio="xMidYMid meet">
<metadata>
Created by potrace 1.14, written by Peter Selinger 2001-2017
</metadata>
<g transform="translate(0.000000,715.000000) scale(0.100000,-0.100000)"
fill="#000000" stroke="none">
<path d="M3609 6952 c-145 -154 -312 -376 -426 -567 -89 -148 -116 -205 -101
-209 7 -3 47 -14 88 -26 338 -98 561 -332 647 -678 22 -90 22 -306 -1 -427
-38 -199 -122 -399 -225 -535 -119 -157 -308 -306 -486 -383 -93 -41 -295 -97
-346 -97 -16 0 -29 -4 -29 -9 0 -52 76 -367 125 -521 l34 -105 48 -17 c137
-49 309 -196 397 -340 95 -154 146 -350 146 -558 l0 -116 88 -100 c49 -54 95
-105 104 -112 13 -10 26 0 89 70 341 378 653 667 912 843 68 47 86 64 83 80
-2 11 -13 65 -24 120 -34 164 -45 270 -45 460 0 180 9 280 40 430 24 117 21
331 -6 462 -55 265 -169 473 -369 672 -339 337 -550 742 -638 1226 -9 53 -19
178 -23 304 l-6 214 -76 -81z"/>
<path d="M1034 6149 c-8 -13 27 -19 109 -19 196 -1 316 -56 362 -167 37 -89
40 -181 40 -1589 l0 -1371 67 54 c109 86 269 186 390 243 l113 52 0 1282 c0
1204 1 1283 17 1309 32 48 50 52 243 52 171 0 184 -2 260 -28 218 -76 385
-226 491 -442 64 -132 91 -237 103 -402 17 -223 -9 -373 -94 -548 -129 -268
-357 -436 -612 -452 -167 -11 -151 -43 22 -43 516 0 947 272 1130 714 19 47
47 134 62 193 24 96 27 127 27 278 0 160 -1 175 -28 255 -116 350 -360 540
-791 617 -78 13 -214 16 -998 17 -500 1 -910 -1 -913 -5z"/>
<path d="M6304 5751 c-808 -536 -1369 -1414 -1519 -2375 -14 -91 -15 -119 -5
-163 6 -29 16 -53 21 -53 6 0 29 13 52 28 150 102 433 252 616 327 204 83 471
155 575 155 30 0 37 7 95 95 35 53 70 117 78 143 21 70 19 175 -5 262 -38 133
-63 308 -69 480 -13 381 60 715 229 1054 33 65 57 120 55 122 -2 2 -57 -32
-123 -75z"/>
<path d="M2870 5715 c-21 -55 -78 -258 -104 -378 -38 -166 -65 -371 -77 -576
-9 -163 -8 -225 7 -449 l6 -82 61 32 c81 43 206 163 268 257 122 186 165 425
124 694 -29 190 -99 345 -212 466 l-61 66 -12 -30z"/>
<path d="M6060 3603 c-468 -49 -1114 -375 -1646 -829 -149 -127 -493 -476
-685 -694 -79 -91 -282 -320 -449 -509 -168 -189 -315 -356 -328 -370 -12 -14
11 26 51 89 200 311 318 581 377 856 30 140 38 396 16 521 -34 199 -111 350
-245 483 -97 97 -193 153 -327 192 -69 20 -100 23 -244 22 -150 -1 -176 -4
-280 -31 -300 -79 -557 -234 -834 -503 -147 -142 -250 -262 -335 -388 -393
-586 -306 -1244 189 -1427 107 -40 276 -46 405 -16 186 44 371 158 547 337
342 346 532 731 515 1044 -6 125 -32 192 -103 269 -88 95 -197 133 -322 111
-97 -17 -162 -52 -226 -121 -139 -150 -105 -362 63 -398 144 -31 280 78 281
224 0 28 -7 62 -14 78 -17 30 -8 34 33 12 133 -68 133 -307 1 -580 -90 -188
-290 -453 -430 -574 -199 -172 -354 -237 -544 -229 -116 4 -184 29 -254 93
-225 203 -144 723 185 1183 253 353 652 644 987 717 105 23 257 17 338 -14
116 -45 196 -149 235 -306 24 -97 24 -382 -1 -515 -61 -331 -178 -664 -376
-1065 -121 -245 -223 -419 -352 -598 -130 -180 -130 -179 -124 -211 8 -40 32
-64 71 -72 41 -7 71 7 195 96 317 226 582 487 1229 1215 622 699 767 849 986
1020 318 249 696 463 988 560 217 72 263 79 507 80 243 0 258 4 287 73 31 75
-21 150 -117 171 -48 10 -172 12 -250 4z"/>
<path d="M5770 3245 c-146 -40 -259 -86 -435 -174 -157 -80 -340 -187 -401
-236 l-25 -20 73 -145 c72 -144 184 -324 196 -318 4 2 44 22 89 46 45 23 117
54 160 68 82 27 254 64 302 64 33 0 41 23 41 126 0 134 54 432 104 572 18 51
19 51 -104 17z"/>
<path d="M2027 2900 c-124 -82 -218 -160 -320 -265 -81 -82 -227 -261 -227
-278 0 -4 113 -5 251 -2 l251 6 2 82 c2 101 32 172 102 247 l47 50 -2 78 c-1
42 -5 91 -9 109 l-7 32 -88 -59z"/>
<path d="M4758 2712 c-219 -164 -329 -270 -658 -632 -57 -63 -117 -129 -133
-146 l-29 -32 136 -105 136 -106 -100 -73 c-55 -40 -148 -104 -207 -141 -118
-74 -415 -226 -533 -272 -73 -29 -80 -35 -315 -270 -132 -133 -296 -288 -365
-345 l-124 -103 59 7 c32 3 113 21 179 39 110 29 134 32 271 31 125 0 163 -3
228 -22 198 -57 364 -169 488 -331 l26 -33 6 93 c4 68 14 118 35 179 45 129
59 158 118 246 92 139 210 232 393 309 159 67 202 72 526 66 142 -3 232 16
364 79 109 53 193 113 266 192 82 88 124 159 197 331 78 183 128 247 241 301
99 49 177 63 269 49 40 -6 77 -6 82 -2 6 5 12 49 14 99 4 86 3 94 -27 154 -40
82 -128 165 -208 198 -53 21 -73 23 -228 22 -185 0 -284 -14 -422 -61 -80 -26
-184 -76 -238 -112 -16 -12 -33 -21 -37 -21 -16 0 -156 226 -220 355 -38 76
-70 140 -71 142 -2 1 -55 -37 -119 -85z"/>
<path d="M2205 948 c-66 -5 -183 -6 -260 -3 -77 2 -146 1 -152 -3 -17 -11 61
-126 137 -202 57 -57 184 -150 205 -150 17 1 255 340 255 364 0 7 -22 6 -185
-6z"/>
</g>
</svg>
